<svg width="80" height="80" viewBox="0 0 80 80" fill="none" xmlns="http://www.w3.org/2000/svg">
<circle cx="40" cy="40" r="40" fill="#1D1E26"/>
<path fill-rule="evenodd" clip-rule="evenodd" d="M28.299 28.7405L37.0452 24.8533C38.8552 24.0489 40.9212 24.0489 42.7312 24.8533L51.4427 28.7251C53.9902 29.8573 55.6623 32.402 55.4838 35.184C54.7992 45.8552 51.7483 50.6792 43.5013 56.2757C41.3249 57.7526 38.4539 57.749 36.2759 56.2744C28.0541 50.7082 24.8901 45.9515 24.2607 35.1466C24.0997 32.3829 25.7692 29.8649 28.299 28.7405ZM46.126 38.4541C46.6033 37.9086 46.548 37.0794 46.0025 36.602C45.457 36.1247 44.6278 36.18 44.1504 36.7255L39.1281 42.4653C38.9739 42.6415 38.7084 42.6651 38.5256 42.5189L35.4581 40.0649C34.8921 39.6121 34.0661 39.7038 33.6133 40.2699C33.1605 40.8359 33.2523 41.6619 33.8183 42.1147L36.8857 44.5686C38.1655 45.5924 40.0244 45.4273 41.1036 44.1939L46.126 38.4541Z" fill="#7E7F97"/>
</svg>
