<svg width="25" height="25" viewBox="0 0 25 25" fill="none" xmlns="http://www.w3.org/2000/svg">
<g clip-path="url(#clip0_167_475)">
<path d="M14.7904 12.5214L24.5249 2.78662C25.1584 2.15341 25.1584 1.1296 24.5249 0.49639C23.8917 -0.136818 22.8679 -0.136818 22.2347 0.49639L12.4999 10.2312L2.76536 0.49639C2.13185 -0.136818 1.10834 -0.136818 0.475129 0.49639C-0.158376 1.1296 -0.158376 2.15341 0.475129 2.78662L10.2096 12.5214L0.475129 22.2562C-0.158376 22.8894 -0.158376 23.9132 0.475129 24.5464C0.790695 24.8623 1.20562 25.021 1.62024 25.021C2.03487 25.021 2.44949 24.8623 2.76536 24.5464L12.4999 14.8116L22.2347 24.5464C22.5505 24.8623 22.9652 25.021 23.3798 25.021C23.7944 25.021 24.209 24.8623 24.5249 24.5464C25.1584 23.9132 25.1584 22.8894 24.5249 22.2562L14.7904 12.5214Z" fill="white"/>
</g>
<defs>
<clipPath id="clip0_167_475">
<rect width="25" height="25" fill="white"/>
</clipPath>
</defs>
</svg>
