<svg width="21" height="21" viewBox="0 0 21 21" fill="none" xmlns="http://www.w3.org/2000/svg">
<path d="M19.25 10.5C19.25 15.3325 15.3325 19.25 10.5 19.25M19.25 10.5C19.25 5.66751 15.3325 1.75 10.5 1.75M19.25 10.5C19.25 9.05025 15.3325 7.875 10.5 7.875C5.66751 7.875 1.75 9.05025 1.75 10.5M19.25 10.5C19.25 11.9497 15.3325 13.125 10.5 13.125C5.66751 13.125 1.75 11.9497 1.75 10.5M10.5 19.25C5.66751 19.25 1.75 15.3325 1.75 10.5M10.5 19.25C12.433 19.25 14 15.3325 14 10.5C14 5.66751 12.433 1.75 10.5 1.75M10.5 19.25C8.567 19.25 7 15.3325 7 10.5C7 5.66751 8.567 1.75 10.5 1.75M1.75 10.5C1.75 5.66751 5.66751 1.75 10.5 1.75" stroke="white" stroke-width="1.3125"/>
</svg>
