<?xml version="1.0" encoding="UTF-8"?>
<svg id="Laag_3" data-name="Laag 3" xmlns="http://www.w3.org/2000/svg" viewBox="0 0 265.05 265.08">
  <defs>
    <style>
      .cls-1 {
        fill: #a200fe;
      }

      .cls-2 {
        fill: #fff;
        font-family: SFProDisplay-Bold, 'SF Pro Display';
        font-size: 102px;
        font-weight: 700;
      }

      .cls-3 {
        fill: none;
      }

      .cls-4 {
        fill: #8100fe;
      }
    </style>
  </defs>
  <g>
    <path class="cls-1" d="M261.26,141.69l-119.59,119.59c-5.06,5.06-13.25,5.06-18.31,0L3.82,141.75c5.36-16.7,15.39-31.54,28.05-43.66,18.69-17.88,44.55-27.15,70.23-27.21,14.1-.03,28.21,2.66,41.27,7.93-3.39-.73-7.02-1.17-10.87-1.17-26.66,0-48.87,18.99-53.84,44.2-.7,3.46-1.05,7.04-1.05,10.7,0,15.31,6.27,29.16,16.38,39.11,5.22,5.14,11.45,9.24,18.38,11.97,16.26,8.37,34.64,12.66,52.91,12.35,28.12-.47,55.39-12.76,74.15-33.81,9.92-11.13,17.77-24.44,21.73-38.87l.09,.09c5.06,5.06,5.06,13.25,0,18.31Z"/>
    <path class="cls-3" d="M112.34,183.61c-6.5-3.34-12.66-7.33-18.34-11.95-.41-.32-.81-.65-1.22-.99"/>
    <g>
      <path class="cls-4" d="M104.88,179.98c.31,.18,.64,.35,.96,.53-.32-.18-.64-.34-.96-.53Z"/>
      <path class="cls-4" d="M107.3,181.32c.33,.17,.68,.33,1.02,.49-.34-.17-.68-.32-1.02-.49Z"/>
      <path class="cls-4" d="M109.8,182.53c.35,.16,.7,.3,1.05,.45-.35-.15-.7-.29-1.05-.45Z"/>
      <path class="cls-4" d="M102.54,178.54c.3,.2,.62,.38,.93,.57-.31-.19-.62-.37-.93-.57Z"/>
      <path class="cls-4" d="M141.66,3.79c-5.06-5.06-13.25-5.06-18.31,0C90.29,36.86,57.22,69.93,24.15,102.99c-6.78,6.78-13.56,13.56-20.34,20.34-5.09,5.09-5.09,13.34,0,18.42,5.36-16.7,15.39-31.54,28.05-43.66,18.69-17.88,44.55-27.15,70.23-27.21,14.1-.03,28.21,2.66,41.27,7.93h0c15.51,3.34,25.83,12.82,27.6,14.57,2.04,2,16.43,17.12,16.43,39.16,0,30.32-24.57,54.89-54.9,54.89-7.1,0-13.9-1.35-20.13-3.81,16.26,8.37,34.64,12.65,52.91,12.35,28.12-.47,55.39-12.76,74.15-33.81,9.92-11.13,17.77-24.44,21.73-38.87L141.66,3.79Z"/>
      <path class="cls-4" d="M100.27,176.97c.34,.24,.69,.47,1.03,.71-.34-.24-.69-.46-1.03-.71Z"/>
      <path class="cls-4" d="M96,173.53c.19,.17,.39,.32,.58,.49-.19-.17-.39-.32-.58-.49Z"/>
      <path class="cls-4" d="M98.09,175.31c.32,.26,.66,.5,.98,.75-.33-.25-.66-.49-.98-.75Z"/>
    </g>
  </g>
  <text class="cls-2" transform="translate(103.95 168.47) scale(.96 1)"><tspan x="0" y="0">E</tspan></text>
</svg>