<svg xmlns="http://www.w3.org/2000/svg" viewBox="0 0 18 18" fill="none"><path d="M15.2905 5.36813L8.99993 9M8.99993 9L2.70685 5.36234M8.99993 9L9 15.75" stroke="#3C3F4C" stroke-width="1.5" stroke-linecap="round" stroke-linejoin="round"></path><path d="M6.37501 3.37501L12 6.75001M8.25001 1.93302C8.71411 1.66507 9.28591 1.66507 9.75001 1.93302L14.7452 4.817C15.2093 5.08495 15.4952 5.58014 15.4952 6.11603V11.884C15.4952 12.4199 15.2093 12.9151 14.7452 13.1831L9.75001 16.067C9.28591 16.3349 8.71411 16.3349 8.25001 16.067L3.25482 13.1831C2.79071 12.9151 2.50482 12.4199 2.50482 11.884V6.11603C2.50482 5.58014 2.79071 5.08495 3.25482 4.817L8.25001 1.93302Z" stroke="#3C3F4C" stroke-width="1.5" stroke-linecap="round" stroke-linejoin="round"></path></svg>